<svg width="24" height="27" viewBox="0 0 24 27" fill="none" xmlns="http://www.w3.org/2000/svg">
<circle cx="12" cy="7" r="6" stroke="#717B1F" stroke-width="2"/>
<path d="M23 21.9946C23 22.5445 22.8885 23.0117 22.6388 23.4197C22.3888 23.8284 21.9544 24.2525 21.1863 24.64C19.6083 25.4363 16.781 26 11.9033 26C7.02278 26 4.25089 25.4354 2.72687 24.6451C1.98838 24.2621 1.57793 23.8439 1.3424 23.4389C1.10523 23.0311 1 22.5585 1 21.9946C1 21.4306 1.10523 20.959 1.34203 20.5526C1.5772 20.1489 1.98724 19.7319 2.72578 19.3501C4.25007 18.562 7.02231 18 11.9033 18C16.7815 18 19.6091 18.561 21.1874 19.3551C21.9555 19.7415 22.3895 20.1643 22.6392 20.5718C22.8885 20.9784 23 21.4446 23 21.9946Z" stroke="#717B1F" stroke-width="2"/>
</svg>
