<svg width="224" height="222" viewBox="0 0 224 222" fill="none" xmlns="http://www.w3.org/2000/svg">
<path d="M69.5 67L62 69L54 71.5L49.5 74L44.5 77.5L41 81L38.5 84.5L37 87.5L36 92L35.5 95.5V98.5L36 101L37 104.5L39 110L41.5 115.5L43.75 119L46 122.5L53.5 133L59.5 143.5L61.5 148.5L62.5 151.5L63.5 154.5L64.5 160L65 163.5L66 168.5L68.5 173.5L71 176L74 178L78.5 179.5L83 180H87L94 179L101 178L110.5 176.5L118.5 176.065L123.5 176.5L127 177L129.5 177.5L148.5 185L153.5 187L157 187.5H159.5L161.5 187L164.5 185.5L166.5 183.5L170.5 175.5L173 168.5L174.5 164L176 159L181.5 149L188.5 139L194.5 130.5L198 125.5L199.5 122.5L200 120.5L200.5 117.5V115L199.5 111L197.5 107.5L195.5 105L189 97.5L180.5 88.5L167.5 73.5L165.5 69.5L163 63.5L162.5 59.5L162 55.5L161.5 54L161 53L157 47.5L155 45L152.5 42.5L150 40.5L148.5 39.5L139.654 35.5683L129.5 35L122.5 35.5L117.5 37L110.5 40L104 44.5L96.5 50.5L89.5 57L82.5 62L77 64.5L69.5 67Z" stroke="#EEFE6E" stroke-width="5"/>
<path d="M46.4872 105.746L41.7995 111.933L37.0245 118.821L35.0107 123.559L33.2169 129.392L32.6066 134.304L32.7851 138.602L33.4453 141.89L35.4217 146.055L37.178 149.123L39.0215 151.49L40.9523 153.155L43.892 155.302L48.8496 158.412L54.2017 161.214L58.1275 162.593L62.0533 163.972L74.4225 167.646L85.6084 172.243L90.2587 174.958L92.8912 176.71L95.5236 178.463L99.6923 182.187L102.238 184.641L106.099 187.971L111.144 190.379L114.652 190.815L118.248 190.55L122.72 188.968L126.577 186.597L129.733 184.139L134.641 179.048L139.549 173.958L146.122 166.936L152.166 161.677L156.377 158.948L159.446 157.191L161.725 156.05L181.323 150.291L186.497 148.796L189.565 147.04L191.538 145.503L192.808 143.88L194.253 140.853L194.602 138.046L192.841 129.277L190.512 122.218L188.93 117.746L187.041 112.88L185.235 101.611L184.612 89.4205L184.122 79.0277L183.811 72.9324L183.151 69.6439L182.316 67.7588L180.867 65.0849L179.331 63.1126L176.084 60.5715L172.355 59.0393L169.241 58.2961L159.504 56.3736L147.268 54.4968L127.794 50.6518L123.759 48.7252L118.099 45.5281L115.247 42.6797L112.394 39.8313L111.078 38.9552L110.069 38.4736L103.534 36.5926L100.42 35.8494L96.911 35.4134L93.7097 35.3719L91.9118 35.5047L82.5167 37.8392L74.1573 43.6304L68.9422 48.3264L65.9194 52.5823L62.2406 59.2506L59.878 66.7951L57.6483 76.1373L56.1203 85.5668L53.6705 93.813L50.8678 99.165L46.4872 105.746Z" stroke="#DCDCDA" stroke-width="5"/>
</svg>
