<svg width="23" height="28" viewBox="0 0 23 28" fill="none" xmlns="http://www.w3.org/2000/svg">
<circle cx="11.5" cy="7.5" r="6.5" stroke="#717B1F" stroke-width="2"/>
<path d="M22 22.9946C22 23.5515 21.8914 24.0248 21.6504 24.4358C21.4103 24.8453 20.9966 25.2651 20.2693 25.648C18.7717 26.4366 16.0776 27 11.4073 27C6.73427 27 4.09364 26.4356 2.64799 25.6533C1.94916 25.2752 1.55803 24.8612 1.33154 24.4548C1.10229 24.0435 1 23.5649 1 22.9946C1 22.4243 1.10229 21.9467 1.33119 21.5367C1.55732 21.1316 1.94804 20.7189 2.64688 20.3418C4.09278 19.5618 6.73377 19 11.4073 19C16.0781 19 18.7726 19.5608 20.2704 20.3472C20.9977 20.729 21.411 21.1475 21.6507 21.5557C21.8914 21.9654 22 22.4376 22 22.9946Z" stroke="#717B1F" stroke-width="2"/>
</svg>
