<svg width="15" height="14" viewBox="0 0 15 14" fill="none" xmlns="http://www.w3.org/2000/svg">
<path d="M6.5 13.5H8.5M1 5.87C1.00054 4.91814 1.22753 3.98007 1.66224 3.13327C2.09694 2.28647 2.72687 1.55525 3.5 1M14 5.87C13.9995 4.91814 13.7725 3.98007 13.3378 3.13327C12.9031 2.28647 12.2731 1.55525 11.5 1M11.5 6C11.5 4.93913 11.0786 3.92172 10.3284 3.17157C9.57828 2.42143 8.56087 2 7.5 2C6.43913 2 5.42172 2.42143 4.67157 3.17157C3.92143 3.92172 3.5 4.93913 3.5 6V9.5C3.5 9.89782 3.34196 10.2794 3.06066 10.5607C2.77936 10.842 2.39782 11 2 11H13C12.6022 11 12.2206 10.842 11.9393 10.5607C11.658 10.2794 11.5 9.89782 11.5 9.5V6Z" stroke="#717B1F" stroke-linecap="round" stroke-linejoin="round"/>
</svg>
