<svg width="13" height="13" viewBox="0 0 13 13" fill="none" xmlns="http://www.w3.org/2000/svg">
<path d="M13 6.5C13 8.22391 12.3152 9.87721 11.0962 11.0962C9.87721 12.3152 8.22391 13 6.5 13C4.77609 13 3.12279 12.3152 1.90381 11.0962C0.68482 9.87721 0 8.22391 0 6.5C0 4.77609 0.68482 3.12279 1.90381 1.90381C3.12279 0.68482 4.77609 0 6.5 0C8.22391 0 9.87721 0.68482 11.0962 1.90381C12.3152 3.12279 13 4.77609 13 6.5ZM5.28125 4.0625C4.95802 4.0625 4.64802 4.1909 4.41946 4.41946C4.1909 4.64802 4.0625 4.95802 4.0625 5.28125V7.71875C4.0625 8.04198 4.1909 8.35198 4.41946 8.58054C4.64802 8.8091 4.95802 8.9375 5.28125 8.9375H7.71875C8.04198 8.9375 8.35198 8.8091 8.58054 8.58054C8.8091 8.35198 8.9375 8.04198 8.9375 7.71875V5.28125C8.9375 4.95802 8.8091 4.64802 8.58054 4.41946C8.35198 4.1909 8.04198 4.0625 7.71875 4.0625H5.28125Z" fill="black"/>
</svg>
