<svg width="14" height="12" viewBox="0 0 14 12" fill="none" xmlns="http://www.w3.org/2000/svg">
<path d="M3.4602e-06 11V1C3.4602e-06 0.71667 0.0960036 0.479004 0.288004 0.287004C0.480004 0.0950036 0.717337 -0.000663206 1 3.4602e-06C1.28334 3.4602e-06 1.521 0.0960036 1.713 0.288004C1.905 0.480004 2.00067 0.717337 2 1V11C2 11.2833 1.904 11.521 1.712 11.713C1.52 11.905 1.28267 12.0007 1 12C0.71667 12 0.479004 11.904 0.287004 11.712C0.0950036 11.52 -0.000663206 11.2827 3.4602e-06 11ZM5.525 11.1C5.19167 11.3 4.85434 11.3 4.513 11.1C4.17167 10.9 4.00067 10.6083 4 10.225V1.775C4 1.39167 4.171 1.1 4.513 0.900004C4.855 0.700004 5.19234 0.700004 5.525 0.900004L12.575 5.15C12.9083 5.35 13.075 5.63334 13.075 6C13.075 6.36667 12.9083 6.65 12.575 6.85L5.525 11.1Z" fill="#8C8C8C"/>
</svg>
